<svg xmlns="http://www.w3.org/2000/svg" width="49" height="49" viewBox="0 0 49 49">
    <path fill="#F2F2F2" fill-rule="evenodd" d="M48.455.808a4.607 4.607 0 0 1-1.213-.507c-.441-.265-.997-.181-1.37.176-1.318 1.251-2.917 2.076-4.092 2.57-.53.224-.855.799-.736 1.369.195.913-.524 1.704-.776 1.95l-.094.089-22.272 21.014c-.2.188-.77.651-1.38.033-.769-.784-.906-3.302 2.579-6.853 0-.048.935-.612.34-1.219-.6-.611-2.352.265-3.533 1.468-3.484 3.553-3.46 6.111-5.247 7.885-2.196 2.176-6.125 1.8-8.873 4.601 0 0-5.11 4.528 1.95 11.724 5.297 5.403 8.411 4.322 10.784 1.899 3.13-3.19 1.654-6.25 2.65-7.266 1.68-1.711 3.446-1.329 5.147-3.474.942-1.19.097-2.302-.744-1.443-.694.707-2.532 1.608-3.514.607-.817-.832-.524-1.925 1.434-4.14L41.752 8.6c.928-.946 1.849-1.259 2.52-1.337.615-.073 1.117-.481 1.355-1.063.632-1.542 2.055-3.137 3.127-4.197.39-.382.225-1.066-.3-1.196zM11.74 42.393a1.096 1.096 0 0 1-1.571 0L5.998 38.14a1.147 1.147 0 0 1 0-1.605 1.097 1.097 0 0 1 1.572 0l4.17 4.252a1.145 1.145 0 0 1 0 1.605z"/>
</svg>
