<svg xmlns="http://www.w3.org/2000/svg" width="56" height="51" viewBox="0 0 56 51">
    <g fill="#FFF" fill-rule="evenodd">
        <path d="M38.897 28.696v.67a12.948 12.948 0 0 1 3.317 2.946v-4.4l-3.317.784zM19.737 14.63l7.053 4.19-.068 4.235h9.664l.076-4.74 5.272-.097c.314-.006.621-.092.892-.25l5.96-3.48a1.796 1.796 0 0 0 .645-2.474 1.831 1.831 0 0 0-1.883-.86l-5.58-8.351a.577.577 0 0 0-.74-.188.561.561 0 0 0-.24.761l4.638 8.763-4.24 2.475s-5.04.095-5.112.105l-9.216-.122-3.979-2.314 2.092-6.067c.068-.197.097-.399.096-.596l8.17-4.514a.564.564 0 0 0-.504-1.011l-8.94 3.816a1.828 1.828 0 0 0-2.275 1.138l-2.568 7.449c-.279.806.05 1.694.787 2.132z"/>
        <path d="M35.552 9.511c0 2.068-1.693 3.744-3.781 3.744s-3.78-1.676-3.78-3.744c0-2.068 1.692-3.744 3.78-3.744s3.781 1.676 3.781 3.744zM13.851 48.831a1.12 1.12 0 0 0 0 1.595c.223.22.515.33.806.33.291 0 .583-.11.805-.33l4.972-4.924a12.528 12.528 0 0 1-.823-2.358l-5.76 5.687z"/>
        <path d="M55.713 21.68l-3.654-.198a18.853 18.853 0 0 0-5.29.47v-.509c0-.594-.463-1.08-1.05-1.124a1.134 1.134 0 0 0-1.227 1.124v1.063c-1.836.448-3.519.999-5.496 2.168l-1.597.944a1.142 1.142 0 0 0-.78-.307H24.464c-.63 0-1.14.504-1.14 1.127s.51 1.128 1.14 1.128v1.757h-7.578v-1.757c.629 0 1.139-.505 1.139-1.128 0-.623-.51-1.127-1.139-1.127h-5.377v-9.858l8.406 2.053c.339.083.53-.376.23-.553l-3.141-1.859c-1.892-1.119-3.553-1.693-5.495-2.168v-.836c0-.623-.51-1.128-1.14-1.128-.628 0-1.138.505-1.138 1.128v.283a18.74 18.74 0 0 0-5.29-.47L.289 12.1c-.349.019-.396.513-.057.596l9 2.2V25.31h-4.5c-.629 0-1.139.504-1.139 1.127s.51 1.128 1.14 1.128v5.77c-.63 0-1.14.504-1.14 1.127s.51 1.128 1.14 1.128H9.23v14.064c0 .622.51 1.127 1.139 1.127s1.139-.505 1.139-1.127V35.59h5.377c.63 0 1.139-.505 1.139-1.128 0-.623-.51-1.128-1.139-1.128v-1.757h2.65v5.964c.382-1.804 1.144-3.454 2.278-4.98 2.268-3.05 6.042-5.11 10.297-5.11 1.497 0 3.032.256 4.508.803v-.689c.53 0 .995-.368 1.11-.882h.001l6.762-1.652v11.716c.309 1.103.47 2.253.47 3.429 0 1.16-.159 2.312-.47 3.424v2.663c0 .623.51 1.128 1.139 1.128.63 0 1.139-.507 1.139-1.128V44.88l5.61 5.556c.445.44 1.166.44 1.61 0a1.12 1.12 0 0 0 0-1.595l-7.22-7.151V24.475l9-2.198c.339-.083.29-.578-.057-.597z"/>
        <path d="M32.111 29.708c-5.838 0-10.572 4.687-10.572 10.469 0 6.085 4.883 10.582 10.572 10.582 5.847 0 10.602-4.705 10.572-10.525.03-5.812-4.716-10.526-10.572-10.526zm0 18.795c-4.573 0-8.294-3.684-8.294-8.214 0-4.529 3.72-8.213 8.294-8.213s8.295 3.684 8.295 8.213c0 4.53-3.721 8.214-8.295 8.214z"/>
    </g>
</svg>
