<svg xmlns="http://www.w3.org/2000/svg" width="32" height="32" viewBox="0 0 32 32">
    <g fill="#FFF" fill-rule="evenodd">
        <path d="M21.462 18.4h2.733v-7.798C24.195 9.164 22.972 8 21.462 8h-8.194v2.602h8.194V18.4zM10.168 28.522A14.5 14.5 0 0 1 2.043 16.8H0C.696 25.31 7.704 32 16.27 32c.307 0 .6-.026.9-.045l-5.189-5.272-1.813 1.84z"/>
        <path d="M15.729 0c-.306 0-.6.026-.9.045l5.188 5.274 1.812-1.84a14.489 14.489 0 0 1 8.13 11.721H32C31.298 6.693 24.292 0 15.729 0zM10.735 5.6H8.099v2.7H5.463v2.702H8.1v10.796c0 1.493 1.18 2.701 2.636 2.701H21.27V27.2h2.63v-2.707h2.636v-2.7H10.735V5.6z"/>
    </g>
</svg>
