<svg xmlns="http://www.w3.org/2000/svg" width="32" height="32" viewBox="0 0 32 32">
    <g fill="#FFF" fill-rule="nonzero">
        <path d="M30.343 12.633l-2.244-.38a12.675 12.675 0 0 0-.902-2.179l1.322-1.85a1.97 1.97 0 0 0-.213-2.545l-1.991-1.991a1.961 1.961 0 0 0-2.539-.214L21.92 4.797a12.543 12.543 0 0 0-2.258-.929l-.374-2.218A1.974 1.974 0 0 0 17.337 0h-2.813c-.97 0-1.79.695-1.951 1.65l-.388 2.272c-.748.233-1.476.54-2.17.915L8.176 3.514a1.961 1.961 0 0 0-1.149-.367 1.95 1.95 0 0 0-1.396.58L3.634 5.72a1.978 1.978 0 0 0-.214 2.545l1.337 1.877a12.38 12.38 0 0 0-.889 2.185L1.65 12.7c-.955.16-1.65.982-1.65 1.95v2.813c0 .969.695 1.79 1.65 1.95l2.272.388c.233.749.54 1.477.915 2.172l-1.316 1.83a1.97 1.97 0 0 0 .213 2.545l1.991 1.991a1.961 1.961 0 0 0 2.539.214l1.877-1.336c.675.354 1.383.641 2.111.868l.374 2.245c.16.955.982 1.65 1.951 1.65h2.82c.968 0 1.79-.695 1.95-1.65l.38-2.245a12.675 12.675 0 0 0 2.179-.902l1.85 1.323c.334.24.735.368 1.15.368.527 0 1.021-.208 1.395-.582l1.991-1.99a1.978 1.978 0 0 0 .214-2.546L27.183 21.9c.368-.701.675-1.43.902-2.178l2.245-.374a1.974 1.974 0 0 0 1.65-1.95v-2.813a1.95 1.95 0 0 0-1.637-1.95zm-.153 4.763c0 .087-.06.16-.147.174l-2.806.468a.897.897 0 0 0-.722.661 10.695 10.695 0 0 1-1.162 2.8.903.903 0 0 0 .04.981l1.65 2.325a.182.182 0 0 1-.02.227l-1.99 1.991a.17.17 0 0 1-.128.053.164.164 0 0 1-.1-.033l-2.318-1.65a.903.903 0 0 0-.982-.04c-.875.521-1.817.908-2.8 1.162a.887.887 0 0 0-.66.722l-.475 2.806a.173.173 0 0 1-.174.147h-2.812a.173.173 0 0 1-.174-.147l-.468-2.806a.897.897 0 0 0-.661-.722 11.105 11.105 0 0 1-2.739-1.122.925.925 0 0 0-.454-.12.88.88 0 0 0-.521.167l-2.339 1.663a.199.199 0 0 1-.1.034.179.179 0 0 1-.127-.054l-1.99-1.99a.181.181 0 0 1-.02-.228l1.643-2.305a.915.915 0 0 0 .04-.988 10.594 10.594 0 0 1-1.176-2.793.915.915 0 0 0-.721-.661l-2.826-.481a.173.173 0 0 1-.147-.174v-2.812c0-.087.06-.16.147-.174l2.786-.468a.903.903 0 0 0 .728-.668c.247-.982.628-1.93 1.142-2.806a.892.892 0 0 0-.047-.975L4.897 7.222a.182.182 0 0 1 .02-.227l1.99-1.991a.17.17 0 0 1 .128-.054c.04 0 .073.014.1.034L9.44 6.627c.294.207.681.22.988.04.869-.52 1.81-.922 2.793-1.175a.915.915 0 0 0 .661-.722l.481-2.826a.173.173 0 0 1 .174-.147h2.812c.087 0 .16.06.174.147l.468 2.786c.06.354.32.641.668.728 1.009.254 1.97.648 2.866 1.176.307.18.688.167.982-.04l2.305-1.657a.199.199 0 0 1 .1-.033c.027 0 .08.006.127.053l1.99 1.99c.06.061.067.155.02.228L25.4 9.493a.903.903 0 0 0-.04.982c.522.875.91 1.817 1.163 2.8a.887.887 0 0 0 .721.66l2.806.475a.173.173 0 0 1 .147.174v2.812h-.006z"/>
        <path d="M15.993 9.086a6.905 6.905 0 0 0-6.9 6.9 6.905 6.905 0 0 0 6.9 6.902 6.905 6.905 0 0 0 6.901-6.901 6.905 6.905 0 0 0-6.9-6.901zm0 11.998a5.1 5.1 0 0 1-5.097-5.097 5.1 5.1 0 0 1 5.097-5.098 5.1 5.1 0 0 1 5.098 5.098 5.1 5.1 0 0 1-5.098 5.097z"/>
    </g>
</svg>
