<svg xmlns="http://www.w3.org/2000/svg" width="50" height="51" viewBox="0 0 50 51">
    <g fill="#FFF" fill-rule="evenodd">
        <path d="M28.375 33.459c.598 0 1.083-.488 1.083-1.09 0-.593-.48-1.089-1.083-1.089v-5.572c.176 0 .342-.043.49-.118.047-.446.247-.87.571-1.187-.1-.5-.537-.873-1.061-.873h-7.717l4.841-2.476a2.796 2.796 0 0 1-1.915-.213l-3.57 2.813c.179.661.265 1.36.239 2.054-.063 1.618-.736 3.09-1.964 4.058a4.936 4.936 0 0 1-1.898.92l1.516 2.773h3.605v8.187l-1.434 1.443.137 2.942 2.38-2.394 4.958 4.987a1.079 1.079 0 0 0 1.532 0 1.094 1.094 0 0 0 0-1.54l-5.407-5.44v-5.41l1.698 4.596a2.083 2.083 0 0 0 1.952 1.365c.241 0 .486-.042.725-.132a2.097 2.097 0 0 0 1.226-2.692l-1.58-4.278h-4.02V33.46h4.696M43.157 26.947l-.537-.038v7.86l2.274-4.839c.625-1.331-.278-2.88-1.737-2.983M37.204 30.675v-4.502l-5.98 1.484c-.401.1-.83.069-1.225-.104v2.64c.168.126.326.33.453.482h6.752M21.931 12.622a2.806 2.806 0 0 1 3-1.516l1.749-5.148c.065-.191.093-.386.091-.576l7.77-4.36a.55.55 0 0 0 .234-.692.541.541 0 0 0-.713-.285L25.56 3.732a1.732 1.732 0 0 0-2.164 1.098l-2.442 7.194a1.75 1.75 0 0 0-.025 1.048 2.816 2.816 0 0 1 1.002-.45M36.733 14.184l-7.16-.115a3.105 3.105 0 0 1-.215 1.758 2.85 2.85 0 0 1-.963 3.266l-.044 2.803h.024a2.71 2.71 0 0 1 2.466 1.601l1.929-1.158a19.183 19.183 0 0 1 4.445-1.954c.036-.418.166-.808.368-1.151l.025-1.59 5.013-.094c.3-.006.592-.09.85-.242l5.667-3.361a1.75 1.75 0 0 0 .613-2.39 1.73 1.73 0 0 0-1.79-.83L42.653 2.66a.543.543 0 0 0-.933.554l4.41 8.463-4.03 2.391c-5.618.106-5.368.115-5.368.115"/>
        <path d="M33.148 5.524c1.985 0 3.595 1.619 3.595 3.616s-1.61 3.616-3.595 3.616c-1.986 0-3.596-1.619-3.596-3.616s1.61-3.616 3.596-3.616M49.5 20.85l-3.475-.191a17.503 17.503 0 0 0-5.03.454v-.492c0-.61-.498-1.089-1.083-1.089-.598 0-1.083.492-1.083 1.09v1.025c-1.746.434-3.346.965-5.226 2.094l-2.987 1.795a.294.294 0 0 0-.12.362.29.29 0 0 0 .339.173l7.994-1.984v16.09l-6.868 6.906a1.094 1.094 0 0 0 0 1.54 1.079 1.079 0 0 0 1.531 0l5.337-5.366v1.338c0 .601.485 1.089 1.083 1.089s1.083-.488 1.083-1.09v-1.337l5.336 5.367a1.079 1.079 0 0 0 1.531 0 1.093 1.093 0 0 0 0-1.54l-6.867-6.908V23.55l8.558-2.124a.292.292 0 0 0-.053-.576M4.554 36.355v12.153a2.268 2.268 0 0 0 2.261 2.275 2.268 2.268 0 0 0 2.262-2.275V37.66c-1.596.042-3.161-.455-4.523-1.305M18.025 36.867l-2.833-5.183c-.159 1.918-1.017 3.652-2.549 4.78l1.165 2.132.47 10.019a2.266 2.266 0 0 0 2.365 2.165 2.27 2.27 0 0 0 2.152-2.379l-.493-10.545a2.285 2.285 0 0 0-.277-.989M9.564 4.42c2.157 0 3.906 1.759 3.906 3.928 0 2.17-1.749 3.929-3.906 3.929s-3.906-1.759-3.906-3.929c0-2.169 1.75-3.928 3.906-3.928"/>
        <g>
            <path d="M15.697 28.973c2.373-.382 3.564-3.098 2.157-5.929l5.824-4.589.37.475v.001a.998.998 0 0 0 1.481.105l.001-.002c.362-.35.417-.931.094-1.345l-.37-.475.315-.249.37.475c.335.43.964.52 1.405.172a1.01 1.01 0 0 0 .17-1.414l-.369-.474c.318-.25.116-.091.197-.156.546-.443.61-1.23.2-1.756l-.005-.005a1.247 1.247 0 0 0-1.745-.214l-.007.005-.184.144-.37-.475-.003-.004a.999.999 0 0 0-1.401-.167 1.01 1.01 0 0 0-.171 1.413l.37.475-.315.248-.37-.474-.001-.001a.999.999 0 0 0-1.405-.171 1.01 1.01 0 0 0-.17 1.413l.37.475-5.825 4.59-.005-.006c-2.301-1.965-5.26-1.624-6.234.692a2.764 2.764 0 0 1-1.103 1.282l2.146 1.64a1.625 1.625 0 0 1 2.325.253 1.65 1.65 0 0 1-.279 2.306c-.334.264-.739.374-1.132.343a3.707 3.707 0 0 1-3.057 3.235l.382.49a1.01 1.01 0 0 1-.17 1.413.997.997 0 0 1-1.406-.171l-2.195-2.818-3.828-2.72c-.483 2.473.689 5.145 2.525 6.86 2.051 1.91 5.215 2.777 7.405 1.051 1.035-.815 1.605-2.046 1.709-3.42a2.76 2.76 0 0 1 2.304-2.52"/>
            <path d="M9.898 28.24c.6-.855.397-2.038-.453-2.642l-5.668-4.025.028-3.562a.375.375 0 0 1 .375-.374c.206 0 .373.168.373.376v1.883l2.306 1.638c.223.022.632.082.684.082a.935.935 0 0 0 .861-.575 4.99 4.99 0 0 1 1.522-2.011c.89-.703 1.989-1.074 3.176-1.073.478 0 .959.06 1.433.176v-.015a.387.387 0 1 1 .743-.159c.054.124.088.269.087.437.297.116.589.253.874.412l2.578-2.032c-.707-1.998-2.282-3.247-4.184-3.247H4.496c-2.447 0-4.448 2.002-4.46 4.457L0 22.508v.001a1.9 1.9 0 0 0 .797 1.588l6.474 4.598a1.878 1.878 0 0 0 2.627-.455"/>
        </g>
    </g>
</svg>
