<svg xmlns="http://www.w3.org/2000/svg" width="54" height="54" viewBox="0 0 54 54">
    <g fill="none" fill-rule="evenodd" transform="translate(2 2)">
        <circle cx="25" cy="25" r="25" fill="#0088E8" stroke="#FFF" stroke-width="3"/>
        <path fill="#F2F2F2" d="M20.748 14.82c-.142-.071-.429-.11-.588-.11-1.643 0-3.16 1.36-3.16 2.964v14.36C17 33.642 18.517 35 20.16 35c.16 0 .38-.038.522-.11l13.326-6.704c1.631-.823 2.473-1.945 2.473-3.332 0-.954-.431-2.307-2.506-3.333l-13.227-6.7zm13.684 10.034c0 .218 0 .79-1.308 1.453l-13.163 6.57c-.416-.092-.897-.458-.897-.843v-14.36c0-.382.481-.75.897-.841l13.047 6.572c.62.308 1.424.808 1.424 1.449z"/>
    </g>
</svg>
