<svg xmlns="http://www.w3.org/2000/svg" width="14" height="13" viewBox="0 0 14 13">
    <g fill="#FFF" fill-rule="evenodd">
        <path d="M13.573 1.135a.507.507 0 0 0-.602.383l-.369 1.69C11.43 1.24 9.274.007 6.913.007 3.277.008.32 2.912.32 6.483c0 .275.227.498.507.498s.508-.223.508-.498c0-3.021 2.503-5.48 5.58-5.48a5.598 5.598 0 0 1 4.825 2.728l-1.69-.356a.507.507 0 0 0-.603.383.498.498 0 0 0 .39.591l2.903.611a.511.511 0 0 0 .602-.383l.622-2.85a.499.499 0 0 0-.39-.592zM13.063 5.83c-.28.009-.5.24-.49.514a5.386 5.386 0 0 1-1.504 3.925 5.588 5.588 0 0 1-4.075 1.735A5.602 5.602 0 0 1 2.25 9.407l1.763.464a.508.508 0 0 0 .622-.352.497.497 0 0 0-.359-.61l-2.867-.755a.516.516 0 0 0-.385.05.499.499 0 0 0-.237.302l-.769 2.816a.497.497 0 0 0 .49.627.506.506 0 0 0 .49-.37l.432-1.582a6.62 6.62 0 0 0 5.785 3 6.604 6.604 0 0 0 4.596-2.047 6.367 6.367 0 0 0 1.777-4.639.503.503 0 0 0-.524-.481z"/>
    </g>
</svg>
