<svg xmlns="http://www.w3.org/2000/svg" width="25" height="20" viewBox="0 0 25 20">
    <path fill="#F2F2F2" fill-rule="evenodd" d="M12.413 17.879a1.125 1.125 0 0 1-1.128 1.127c-.256 0-.512-.088-.719-.26l-6.158-5.103H1.126A1.127 1.127 0 0 1 0 12.516V8.027C0 7.405.504 6.9 1.126 6.9h3.282l6.158-5.104a1.126 1.126 0 1 1 1.846.868v15.215zm4.33-1.76l-.082.002c-.298 0-.584-.117-.796-.33l-.151-.15a1.128 1.128 0 0 1-.109-1.47 6.496 6.496 0 0 0 1.29-3.899 6.485 6.485 0 0 0-1.463-4.128 1.126 1.126 0 0 1 .077-1.506l.151-.151c.225-.225.526-.348.853-.328.318.015.615.165.816.411a8.913 8.913 0 0 1 2.029 5.702 8.952 8.952 0 0 1-1.794 5.397 1.124 1.124 0 0 1-.822.45zM21.4 19.6c-.204.241-.499.386-.814.399L20.54 20c-.298 0-.585-.119-.797-.33l-.147-.148A1.128 1.128 0 0 1 19.529 18a12.022 12.022 0 0 0 2.819-7.728c0-2.937-1.072-5.763-3.017-7.96a1.127 1.127 0 0 1 .044-1.541l.148-.149c.22-.22.504-.342.831-.332.31.01.603.147.81.38a14.472 14.472 0 0 1 .237 18.931z"/>
</svg>
