<svg xmlns="http://www.w3.org/2000/svg" width="20" height="20" viewBox="0 0 20 20">
    <g fill="#F2F2F2" fill-rule="evenodd">
        <path d="M17.58 13.866c3.155-3.155 3.155-8.29 0-11.446-3.156-3.155-8.29-3.155-11.446 0-2.677 2.677-3.083 6.66-1.218 9.768 0 0 .134.225-.047.406l-4.13 4.13c-.82.821-1.017 1.97-.288 2.7l.126.125c.729.729 1.878.533 2.7-.289l4.12-4.12c.19-.19.415-.056.415-.056 3.109 1.865 7.09 1.46 9.768-1.218zm-9.952-1.494a5.987 5.987 0 0 1 0-8.458 5.988 5.988 0 0 1 8.458 0 5.988 5.988 0 0 1 0 8.458 5.987 5.987 0 0 1-8.458 0z"/>
        <path d="M15.06 6.978h-1.811s-.174-.014-.174-.19V4.992a.645.645 0 0 0-.642-.642h-1.065a.645.645 0 0 0-.643.642v1.782c0 .19-.183.203-.183.203H8.74a.645.645 0 0 0-.643.642v1.065c0 .354.29.643.643.643h1.787s.197.006.197.193v1.791c0 .353.29.643.643.643h1.065c.353 0 .642-.29.642-.643V9.51c0-.173.198-.182.198-.182h1.787c.353 0 .642-.29.642-.643V7.62a.644.644 0 0 0-.642-.642z"/>
    </g>
</svg>
