<svg xmlns="http://www.w3.org/2000/svg" xmlns:xlink="http://www.w3.org/1999/xlink" width="20" height="20" viewBox="0 0 20 20">
    <defs>
        <path id="a" d="M.005.053V20h19.942V.053H.005z"/>
    </defs>
    <g fill="none" fill-rule="evenodd">
        <g>
            <mask id="b" fill="#fff">
                <use xlink:href="#a"/>
            </mask>
            <path fill="#F2F2F2" d="M17.58 13.866c3.155-3.155 3.155-8.29 0-11.446-3.156-3.155-8.29-3.155-11.446 0-2.677 2.677-3.083 6.66-1.218 9.768 0 0 .134.225-.047.406l-4.13 4.13c-.82.821-1.017 1.97-.288 2.7l.126.125c.729.729 1.878.533 2.7-.289l4.12-4.12c.19-.19.415-.056.415-.056 3.109 1.865 7.09 1.46 9.768-1.218zm-9.952-1.494a5.987 5.987 0 0 1 0-8.458 5.988 5.988 0 0 1 8.458 0 5.988 5.988 0 0 1 0 8.458 5.987 5.987 0 0 1-8.458 0z" mask="url(#b)"/>
        </g>
        <path fill="#F2F2F2" d="M15.702 8.685c0 .354-.29.643-.642.643H8.74a.645.645 0 0 1-.642-.643V7.62c0-.353.29-.642.643-.642h6.319c.353 0 .642.289.642.642v1.065z"/>
    </g>
</svg>
